<?xml version="1.0" encoding="utf-8"?>
<!-- Svg Vector Icons : http://www.onlinewebfonts.com/icon -->
<!DOCTYPE svg PUBLIC "-//W3C//DTD SVG 1.1//EN" "http://www.w3.org/Graphics/SVG/1.1/DTD/svg11.dtd">
<svg version="1.1" xmlns="http://www.w3.org/2000/svg" xmlns:xlink="http://www.w3.org/1999/xlink" x="0px" y="0px" viewBox="0 0 1000 1000" enable-background="new 0 0 1000 1000" xml:space="preserve">
<metadata> Svg Vector Icons : http://www.onlinewebfonts.com/icon </metadata>
<g><g transform="translate(0.000000,512.000000) scale(0.100000,-0.100000)"><path d="M598.6,5010.4c-186-47.9-358.6-187.9-444.9-364.4L100,4538.6V118.1v-4420.5l42.2-90.2c57.5-126.6,201.4-274.2,329.9-335.6l107.4-53.7H5000h4420.5l107.4,53.7c128.5,61.4,272.3,209,329.9,335.6l42.2,90.2V118.1v4420.5l-53.7,107.4c-61.4,128.5-209.1,272.3-335.6,329.9l-90.1,42.2l-4382.2,3.8C2627.7,5021.9,631.2,5018.1,598.6,5010.4z M9297.8,4433.1c34.5-19.2,36.4-47.9,36.4-757.5v-738.4l-4328.5,3.8l-4330.4,5.7l-5.7,723c-3.8,636.7,0,724.9,26.8,751.8c26.8,28.8,429.6,30.7,4295.9,30.7C7897.8,4452.3,9271,4446.6,9297.8,4433.1z M9282.5,2369.6l51.8-11.5V-906c0-2512.3-5.8-3269.9-23-3287.1c-17.2-17.3-1003-23-4315.1-23c-4223,0-4290.1,0-4311.2,36.4c-19.2,38.4-28.8,6524.4-9.6,6545.5C688.8,2379.2,9211.5,2383,9282.5,2369.6z"/><path d="M1133.7,3984.4l-69-69l7.7-232.1c5.7-226.3,7.7-232.1,59.4-278.1c49.9-44.1,69-46,289.6-46c230.1,0,237.8,1.9,287.7,49.9c47.9,49.9,49.9,57.5,49.9,287.7c0,220.5-1.9,239.7-46,289.6c-46,51.8-51.8,53.7-278.1,59.4l-232.1,7.7L1133.7,3984.4z"/><path d="M2524.1,3994c-55.6-55.6-55.6-57.5-55.6-295.3c0-232.1,1.9-239.7,49.9-289.6c49.9-47.9,57.5-49.9,283.8-49.9c337.5,0,364.4,28.8,352.9,374c-5.7,203.3-5.7,205.2-69,260.8c-61.4,53.7-65.2,55.6-283.8,55.6C2583.6,4049.6,2579.7,4049.6,2524.1,3994z"/><path d="M3947.1,4022.7c-80.6-44.1-95.9-101.7-97.8-331.8c0-203.3,1.9-216.7,49.9-272.3l49.9-59.5h239.7c237.8,0,239.7,0,295.3,55.6s55.6,59.5,55.6,270.4c0,235.9-21.1,303-105.5,341.4C4365.2,4059.2,4006.6,4055.3,3947.1,4022.7z"/><path d="M2727.4,589.9c-187.9-82.5-237.8-339.5-92.1-475.6c30.7-26.9,339.4-258.9,686.6-514c349-257,648.2-479.5,667.4-496.7c30.7-30.7-7.7-63.3-665.5-546.6c-734.5-542.8-778.6-583-778.6-724.9c0-86.3,57.5-187.9,134.2-239.7c71-49.9,222.5-59.5,293.4-23c67.1,38.4,1630.1,1225.5,1706.9,1298.3c97.8,94,122.7,191.8,80.6,304.9c-30.7,76.7-95.9,132.3-878.3,728.8c-466,354.8-878.4,661.6-914.8,680.8C2890.4,622.5,2807.9,624.4,2727.4,589.9z"/><path d="M5220.5-1174.5c-78.6-34.5-159.2-132.3-174.5-212.9c-24.9-132.3,69-278.1,205.2-316.4c38.3-11.5,450.7-19.2,1012.6-19.2c909,0,951.2,1.9,1027.9,38.3c211,101.6,212.9,406.6,1.9,506.3c-57.5,26.9-180.3,30.7-1041.4,30.7C5485.2-1149.6,5266.6-1155.3,5220.5-1174.5z"/></g></g>
</svg>