<svg width='24' height='24' viewBox='0 0 24 24' xmlns='http://www.w3.org/2000/svg' xmlns:xlink='http://www.w3.org/1999/xlink'><rect width='24' height='24' stroke='none' fill='#000000' opacity='0'/>


<g transform="matrix(0.45 0 0 0.45 12 12)" >
<path style="stroke: none; stroke-width: 1; stroke-dasharray: none; stroke-linecap: butt; stroke-dashoffset: 0; stroke-linejoin: miter; stroke-miterlimit: 4; fill: rgb(0,0,0); fill-rule: nonzero; opacity: 1;" transform=" translate(-24, -24)" d="M 23.976562 1.9785156 C 23.148901352253777 1.9914459713938661 22.488126980398594 2.6723235090099364 22.5 3.500000000000001 L 22.5 6.1523438 C 18.674972 6.474903 15.213814 7.9721438 12.441406 10.318359 L 10.564453 8.4433594 C 10.188226139441774 8.05150702647518 9.629554777766806 7.89366156207773 9.103897138411982 8.030697978516741 C 8.578239499057156 8.167734394955755 8.167734394955753 8.578239499057158 8.030697978516741 9.103897138411984 C 7.89366156207773 9.629554777766808 8.051507026475182 10.188226139441776 8.443359400000002 10.564453 L 10.318359 12.441406 C 7.9721461 15.213816 6.4749025 18.674974 6.1523438 22.5 L 3.5 22.5 C 2.9590461251336433 22.492349565681767 2.4558779531425827 22.776562944253993 2.1831684177702146 23.243809274571493 C 1.9104588823978466 23.711055604888994 1.9104588823978463 24.288944395111006 2.183168417770214 24.756190725428507 C 2.4558779531425827 25.223437055746007 2.959046125133643 25.507650434318233 3.4999999999999996 25.5 L 6.1523438 25.5 C 6.4749025 29.325026 7.9721461 32.786184 10.318359 35.558594 L 8.4433594 37.435547 C 8.05150993188912 37.81177449082771 7.89366668113022 38.37044441464355 8.03070344164391 38.896100249559524 C 8.167740202157601 39.4217560844755 8.578243863547732 39.832259823279216 9.103899672621036 39.969296682922106 C 9.629555481694341 40.106333542565 10.18822543527656 39.94849039716116 10.564453 39.556641 L 12.441406 37.681641 C 15.213814 40.027857 18.674972 41.525097 22.5 41.847656 L 22.5 44.5 C 22.492349565681767 45.040953874866354 22.776562944253993 45.54412204685742 23.243809274571493 45.81683158222979 C 23.711055604888994 46.08954111760215 24.28894439511101 46.08954111760215 24.756190725428507 45.81683158222978 C 25.223437055746007 45.54412204685742 25.507650434318233 45.040953874866354 25.5 44.5 L 25.5 41.847656 C 29.325028 41.525097 32.786186 40.027857 35.558594 37.681641 L 37.435547 39.556641 C 37.81177519512626 39.94848749107983 38.37044371051894 40.10632842233971 38.896097714739994 39.969291218537556 C 39.42175171896105 39.832254014735405 39.83225401473541 39.42175171896105 39.969291218537556 38.896097714739994 C 40.10632842233971 38.37044371051894 39.94848749107983 37.81177519512626 39.556641 37.435547 L 37.681641 35.558594 C 40.027854 32.786184 41.525098 29.325026 41.847656 25.5 L 44.5 25.5 C 45.040953874866354 25.507650434318233 45.54412204685742 25.223437055746007 45.81683158222979 24.756190725428507 C 46.08954111760215 24.288944395111006 46.08954111760215 23.711055604888994 45.81683158222979 23.243809274571493 C 45.54412204685742 22.776562944253993 45.040953874866354 22.492349565681767 44.5 22.5 L 41.847656 22.5 C 41.525098 18.674974 40.027854 15.213816 37.681641 12.441406 L 39.556641 10.564453 C 39.94849039716116 10.18822543527656 40.106333542565 9.629555481694341 39.969296682922106 9.103899672621036 C 39.832259823279216 8.578243863547732 39.4217560844755 8.167740202157601 38.896100249559524 8.030703441643912 C 38.37044441464355 7.89366668113022 37.81177449082771 8.05150993188912 37.435547 8.4433594 L 35.558594 10.318359 C 32.786186 7.9721438 29.325028 6.4749029 25.5 6.1523438 L 25.5 3.5 C 25.50581863731553 3.0943812773154193 25.347119004885432 2.703696988759657 25.06008976756276 2.417035827012122 C 24.77306053024009 2.130374665264587 24.382172922358524 1.9721764836618982 23.976562 1.9785156000000002 z M 24 9 C 32.302045 9 39 15.697961 39 24 C 39 32.302039 32.302045 39 24 39 C 15.697955 39 9 32.302039 9 24 C 9 15.697961 15.697955 9 24 9 z M 19 14 C 17.458334 14 16.112148 14.632133 15.253906 15.597656 C 14.395664 16.563179 14 17.791667 14 19 C 14 20.208333 14.395664 21.436821 15.253906 22.402344 C 16.112148 23.367867 17.458334 24 19 24 C 20.541666 24 21.887852 23.367867 22.746094 22.402344 C 23.604336 21.436821 24 20.208333 24 19 C 24 17.791667 23.604336 16.563179 22.746094 15.597656 C 21.887852 14.632133 20.541666 14 19 14 z M 19 17 C 19.791666 17 20.195482 17.242867 20.503906 17.589844 C 20.81233 17.936821 21 18.458333 21 19 C 21 19.541667 20.81233 20.063179 20.503906 20.410156 C 20.195482 20.757133 19.791666 21 19 21 C 18.208334 21 17.804518 20.757133 17.496094 20.410156 C 17.18767 20.063179 17 19.541667 17 19 C 17 18.458333 17.18767 17.936821 17.496094 17.589844 C 17.804518 17.242867 18.208334 17 19 17 z" stroke-linecap="round" />
</g>
</svg>